# xmcd
#
# Track frame offsets:
#	150
#	8753
#	21818
#	35865
#	46544
#	61189
#	74030
#
# Disc length: 1143 seconds
#
# Revision: 1
# Processed by: cddbd v1.5.2PL0 Copyright (c) Steve Scherf et al.
# Submitted via: audiograbber 1.81.02
#
DISCID=56047507
DTITLE=Elliot Brown - Just Doin' His Job
DYEAR=2006
DGENRE=Blues
TTITLE0=Men Don't Know
TTITLE1=Just Doin' His Job
TTITLE2=Home Again
TTITLE3=One One One
TTITLE4=State Highway One
TTITLE5=Nobody Home
TTITLE6=No Pretty Boy Floyd
EXTD=
EXTT0=
EXTT1=
EXTT2=
EXTT3=
EXTT4=
EXTT5=
EXTT6=
PLAYORDER=
